<svg width="24" height="36" viewBox="0 0 24 36" fill="none" xmlns="http://www.w3.org/2000/svg">
<path d="M12 17.1426C10.8634 17.1426 9.77327 16.6911 8.96954 15.8874C8.16582 15.0837 7.71429 13.9936 7.71429 12.8569C7.71429 11.7203 8.16582 10.6302 8.96954 9.82648C9.77327 9.02275 10.8634 8.57122 12 8.57122C13.1366 8.57122 14.2267 9.02275 15.0305 9.82648C15.8342 10.6302 16.2857 11.7203 16.2857 12.8569C16.2857 13.4197 16.1749 13.977 15.9595 14.497C15.7441 15.017 15.4284 15.4894 15.0305 15.8874C14.6325 16.2854 14.16 16.601 13.6401 16.8164C13.1201 17.0318 12.5628 17.1426 12 17.1426ZM12 0.856934C8.8174 0.856934 5.76516 2.12122 3.51472 4.37165C1.26428 6.62209 0 9.67434 0 12.8569C0 21.8569 12 35.1426 12 35.1426C12 35.1426 24 21.8569 24 12.8569C24 9.67434 22.7357 6.62209 20.4853 4.37165C18.2348 2.12122 15.1826 0.856934 12 0.856934Z" fill="#F7F7F8"/>
</svg>
