<svg width="202" height="176" viewBox="0 0 202 176" fill="none" xmlns="http://www.w3.org/2000/svg">
<g clip-path="url(#clip0_138_1524)">
<path d="M174.591 15.8576L175.875 20.6473C176.11 21.5254 177.017 22.0524 177.891 21.8183C178.764 21.5842 179.287 20.6742 179.051 19.7961L178.196 16.603L174.591 15.8576ZM172.88 9.47132C172.41 7.7151 173.454 5.89514 175.201 5.42697L179.966 4.15015L182.41 6.91769C178.916 7.85402 176.827 11.4939 177.768 15.0064L174.163 14.261L172.88 9.47132ZM187.176 5.64087L183.999 6.49208L181.555 3.72454L186.32 2.44773C187.194 2.21364 188.101 2.74058 188.336 3.61869C188.571 4.4968 188.049 5.40678 187.176 5.64087Z" fill="#F7F7F8"/>
</g>
<path d="M1 174.793C223.094 115.619 216.183 41.0463 184.966 11.157" stroke="#FCFCFD"/>
<defs>
<clipPath id="clip0_138_1524">
<rect width="19.8347" height="19.733" fill="white" transform="translate(175.142 24.2661) rotate(-105)"/>
</clipPath>
</defs>
</svg>
