<svg width="486" height="424" viewBox="0 0 486 424" fill="none" xmlns="http://www.w3.org/2000/svg">
<g clip-path="url(#clip0_73_832)">
<path d="M421.091 38.3758L424.197 49.9669C424.766 52.0919 426.962 53.3671 429.076 52.8006C431.19 52.2341 432.454 50.032 431.884 47.9069L429.814 40.1795L421.091 38.3758ZM416.95 22.9209C415.811 18.6709 418.339 14.2666 422.567 13.1336L434.099 10.0437L440.013 16.7411C431.557 19.0071 426.501 27.8157 428.779 36.3158L420.056 34.5121L416.95 22.9209ZM451.545 13.6512L443.857 15.7112L437.943 9.01374L449.474 5.92383C451.588 5.35735 453.784 6.63253 454.353 8.75757C454.923 10.8826 453.659 13.0848 451.545 13.6512Z" fill="#F7F7F8"/>
</g>
<path d="M1 423C538.467 279.797 521.743 99.3321 446.197 27" stroke="#FCFCFD"/>
<defs>
<clipPath id="clip0_73_832">
<rect width="48" height="47.7538" fill="white" transform="translate(422.423 58.7241) rotate(-105)"/>
</clipPath>
</defs>
</svg>
