<?xml version="1.0" encoding="utf-8"?>
<svg xmlns="http://www.w3.org/2000/svg" xmlns:xlink="http://www.w3.org/1999/xlink" xml:space="preserve" width="980" height="980" viewBox="0 0 980 980"><g fill="#000000">
<g transform="translate(220,40) scale(3.4333333333333)"><rect width="6" height="6"/></g>
<g transform="translate(240,40) scale(3.4333333333333)"><rect width="6" height="6"/></g>
<g transform="translate(280,40) scale(3.4333333333333)"><rect width="6" height="6"/></g>
<g transform="translate(400,40) scale(3.4333333333333)"><rect width="6" height="6"/></g>
<g transform="translate(460,40) scale(3.4333333333333)"><rect width="6" height="6"/></g>
<g transform="translate(500,40) scale(3.4333333333333)"><rect width="6" height="6"/></g>
<g transform="translate(520,40) scale(3.4333333333333)"><rect width="6" height="6"/></g>
<g transform="translate(540,40) scale(3.4333333333333)"><rect width="6" height="6"/></g>
<g transform="translate(660,40) scale(3.4333333333333)"><rect width="6" height="6"/></g>
<g transform="translate(680,40) scale(3.4333333333333)"><rect width="6" height="6"/></g>
<g transform="translate(760,40) scale(3.4333333333333)"><rect width="6" height="6"/></g>
<g transform="translate(220,60) scale(3.4333333333333)"><rect width="6" height="6"/></g>
<g transform="translate(240,60) scale(3.4333333333333)"><rect width="6" height="6"/></g>
<g transform="translate(260,60) scale(3.4333333333333)"><rect width="6" height="6"/></g>
<g transform="translate(280,60) scale(3.4333333333333)"><rect width="6" height="6"/></g>
<g transform="translate(360,60) scale(3.4333333333333)"><rect width="6" height="6"/></g>
<g transform="translate(380,60) scale(3.4333333333333)"><rect width="6" height="6"/></g>
<g transform="translate(400,60) scale(3.4333333333333)"><rect width="6" height="6"/></g>
<g transform="translate(420,60) scale(3.4333333333333)"><rect width="6" height="6"/></g>
<g transform="translate(480,60) scale(3.4333333333333)"><rect width="6" height="6"/></g>
<g transform="translate(520,60) scale(3.4333333333333)"><rect width="6" height="6"/></g>
<g transform="translate(560,60) scale(3.4333333333333)"><rect width="6" height="6"/></g>
<g transform="translate(580,60) scale(3.4333333333333)"><rect width="6" height="6"/></g>
<g transform="translate(600,60) scale(3.4333333333333)"><rect width="6" height="6"/></g>
<g transform="translate(620,60) scale(3.4333333333333)"><rect width="6" height="6"/></g>
<g transform="translate(740,60) scale(3.4333333333333)"><rect width="6" height="6"/></g>
<g transform="translate(200,80) scale(3.4333333333333)"><rect width="6" height="6"/></g>
<g transform="translate(220,80) scale(3.4333333333333)"><rect width="6" height="6"/></g>
<g transform="translate(260,80) scale(3.4333333333333)"><rect width="6" height="6"/></g>
<g transform="translate(300,80) scale(3.4333333333333)"><rect width="6" height="6"/></g>
<g transform="translate(340,80) scale(3.4333333333333)"><rect width="6" height="6"/></g>
<g transform="translate(360,80) scale(3.4333333333333)"><rect width="6" height="6"/></g>
<g transform="translate(460,80) scale(3.4333333333333)"><rect width="6" height="6"/></g>
<g transform="translate(480,80) scale(3.4333333333333)"><rect width="6" height="6"/></g>
<g transform="translate(520,80) scale(3.4333333333333)"><rect width="6" height="6"/></g>
<g transform="translate(540,80) scale(3.4333333333333)"><rect width="6" height="6"/></g>
<g transform="translate(600,80) scale(3.4333333333333)"><rect width="6" height="6"/></g>
<g transform="translate(740,80) scale(3.4333333333333)"><rect width="6" height="6"/></g>
<g transform="translate(200,100) scale(3.4333333333333)"><rect width="6" height="6"/></g>
<g transform="translate(220,100) scale(3.4333333333333)"><rect width="6" height="6"/></g>
<g transform="translate(240,100) scale(3.4333333333333)"><rect width="6" height="6"/></g>
<g transform="translate(260,100) scale(3.4333333333333)"><rect width="6" height="6"/></g>
<g transform="translate(340,100) scale(3.4333333333333)"><rect width="6" height="6"/></g>
<g transform="translate(360,100) scale(3.4333333333333)"><rect width="6" height="6"/></g>
<g transform="translate(420,100) scale(3.4333333333333)"><rect width="6" height="6"/></g>
<g transform="translate(460,100) scale(3.4333333333333)"><rect width="6" height="6"/></g>
<g transform="translate(480,100) scale(3.4333333333333)"><rect width="6" height="6"/></g>
<g transform="translate(500,100) scale(3.4333333333333)"><rect width="6" height="6"/></g>
<g transform="translate(540,100) scale(3.4333333333333)"><rect width="6" height="6"/></g>
<g transform="translate(620,100) scale(3.4333333333333)"><rect width="6" height="6"/></g>
<g transform="translate(700,100) scale(3.4333333333333)"><rect width="6" height="6"/></g>
<g transform="translate(740,100) scale(3.4333333333333)"><rect width="6" height="6"/></g>
<g transform="translate(760,100) scale(3.4333333333333)"><rect width="6" height="6"/></g>
<g transform="translate(200,120) scale(3.4333333333333)"><rect width="6" height="6"/></g>
<g transform="translate(220,120) scale(3.4333333333333)"><rect width="6" height="6"/></g>
<g transform="translate(260,120) scale(3.4333333333333)"><rect width="6" height="6"/></g>
<g transform="translate(320,120) scale(3.4333333333333)"><rect width="6" height="6"/></g>
<g transform="translate(360,120) scale(3.4333333333333)"><rect width="6" height="6"/></g>
<g transform="translate(380,120) scale(3.4333333333333)"><rect width="6" height="6"/></g>
<g transform="translate(400,120) scale(3.4333333333333)"><rect width="6" height="6"/></g>
<g transform="translate(440,120) scale(3.4333333333333)"><rect width="6" height="6"/></g>
<g transform="translate(460,120) scale(3.4333333333333)"><rect width="6" height="6"/></g>
<g transform="translate(480,120) scale(3.4333333333333)"><rect width="6" height="6"/></g>
<g transform="translate(500,120) scale(3.4333333333333)"><rect width="6" height="6"/></g>
<g transform="translate(520,120) scale(3.4333333333333)"><rect width="6" height="6"/></g>
<g transform="translate(540,120) scale(3.4333333333333)"><rect width="6" height="6"/></g>
<g transform="translate(560,120) scale(3.4333333333333)"><rect width="6" height="6"/></g>
<g transform="translate(600,120) scale(3.4333333333333)"><rect width="6" height="6"/></g>
<g transform="translate(640,120) scale(3.4333333333333)"><rect width="6" height="6"/></g>
<g transform="translate(680,120) scale(3.4333333333333)"><rect width="6" height="6"/></g>
<g transform="translate(700,120) scale(3.4333333333333)"><rect width="6" height="6"/></g>
<g transform="translate(720,120) scale(3.4333333333333)"><rect width="6" height="6"/></g>
<g transform="translate(740,120) scale(3.4333333333333)"><rect width="6" height="6"/></g>
<g transform="translate(760,120) scale(3.4333333333333)"><rect width="6" height="6"/></g>
<g transform="translate(200,140) scale(3.4333333333333)"><rect width="6" height="6"/></g>
<g transform="translate(260,140) scale(3.4333333333333)"><rect width="6" height="6"/></g>
<g transform="translate(280,140) scale(3.4333333333333)"><rect width="6" height="6"/></g>
<g transform="translate(320,140) scale(3.4333333333333)"><rect width="6" height="6"/></g>
<g transform="translate(340,140) scale(3.4333333333333)"><rect width="6" height="6"/></g>
<g transform="translate(380,140) scale(3.4333333333333)"><rect width="6" height="6"/></g>
<g transform="translate(440,140) scale(3.4333333333333)"><rect width="6" height="6"/></g>
<g transform="translate(520,140) scale(3.4333333333333)"><rect width="6" height="6"/></g>
<g transform="translate(540,140) scale(3.4333333333333)"><rect width="6" height="6"/></g>
<g transform="translate(560,140) scale(3.4333333333333)"><rect width="6" height="6"/></g>
<g transform="translate(580,140) scale(3.4333333333333)"><rect width="6" height="6"/></g>
<g transform="translate(640,140) scale(3.4333333333333)"><rect width="6" height="6"/></g>
<g transform="translate(700,140) scale(3.4333333333333)"><rect width="6" height="6"/></g>
<g transform="translate(200,160) scale(3.4333333333333)"><rect width="6" height="6"/></g>
<g transform="translate(240,160) scale(3.4333333333333)"><rect width="6" height="6"/></g>
<g transform="translate(280,160) scale(3.4333333333333)"><rect width="6" height="6"/></g>
<g transform="translate(320,160) scale(3.4333333333333)"><rect width="6" height="6"/></g>
<g transform="translate(360,160) scale(3.4333333333333)"><rect width="6" height="6"/></g>
<g transform="translate(400,160) scale(3.4333333333333)"><rect width="6" height="6"/></g>
<g transform="translate(440,160) scale(3.4333333333333)"><rect width="6" height="6"/></g>
<g transform="translate(480,160) scale(3.4333333333333)"><rect width="6" height="6"/></g>
<g transform="translate(520,160) scale(3.4333333333333)"><rect width="6" height="6"/></g>
<g transform="translate(560,160) scale(3.4333333333333)"><rect width="6" height="6"/></g>
<g transform="translate(600,160) scale(3.4333333333333)"><rect width="6" height="6"/></g>
<g transform="translate(640,160) scale(3.4333333333333)"><rect width="6" height="6"/></g>
<g transform="translate(680,160) scale(3.4333333333333)"><rect width="6" height="6"/></g>
<g transform="translate(720,160) scale(3.4333333333333)"><rect width="6" height="6"/></g>
<g transform="translate(760,160) scale(3.4333333333333)"><rect width="6" height="6"/></g>
<g transform="translate(200,180) scale(3.4333333333333)"><rect width="6" height="6"/></g>
<g transform="translate(220,180) scale(3.4333333333333)"><rect width="6" height="6"/></g>
<g transform="translate(300,180) scale(3.4333333333333)"><rect width="6" height="6"/></g>
<g transform="translate(320,180) scale(3.4333333333333)"><rect width="6" height="6"/></g>
<g transform="translate(340,180) scale(3.4333333333333)"><rect width="6" height="6"/></g>
<g transform="translate(360,180) scale(3.4333333333333)"><rect width="6" height="6"/></g>
<g transform="translate(420,180) scale(3.4333333333333)"><rect width="6" height="6"/></g>
<g transform="translate(440,180) scale(3.4333333333333)"><rect width="6" height="6"/></g>
<g transform="translate(520,180) scale(3.4333333333333)"><rect width="6" height="6"/></g>
<g transform="translate(600,180) scale(3.4333333333333)"><rect width="6" height="6"/></g>
<g transform="translate(640,180) scale(3.4333333333333)"><rect width="6" height="6"/></g>
<g transform="translate(700,180) scale(3.4333333333333)"><rect width="6" height="6"/></g>
<g transform="translate(760,180) scale(3.4333333333333)"><rect width="6" height="6"/></g>
<g transform="translate(40,200) scale(3.4333333333333)"><rect width="6" height="6"/></g>
<g transform="translate(80,200) scale(3.4333333333333)"><rect width="6" height="6"/></g>
<g transform="translate(100,200) scale(3.4333333333333)"><rect width="6" height="6"/></g>
<g transform="translate(120,200) scale(3.4333333333333)"><rect width="6" height="6"/></g>
<g transform="translate(140,200) scale(3.4333333333333)"><rect width="6" height="6"/></g>
<g transform="translate(160,200) scale(3.4333333333333)"><rect width="6" height="6"/></g>
<g transform="translate(260,200) scale(3.4333333333333)"><rect width="6" height="6"/></g>
<g transform="translate(320,200) scale(3.4333333333333)"><rect width="6" height="6"/></g>
<g transform="translate(340,200) scale(3.4333333333333)"><rect width="6" height="6"/></g>
<g transform="translate(360,200) scale(3.4333333333333)"><rect width="6" height="6"/></g>
<g transform="translate(380,200) scale(3.4333333333333)"><rect width="6" height="6"/></g>
<g transform="translate(420,200) scale(3.4333333333333)"><rect width="6" height="6"/></g>
<g transform="translate(440,200) scale(3.4333333333333)"><rect width="6" height="6"/></g>
<g transform="translate(460,200) scale(3.4333333333333)"><rect width="6" height="6"/></g>
<g transform="translate(480,200) scale(3.4333333333333)"><rect width="6" height="6"/></g>
<g transform="translate(500,200) scale(3.4333333333333)"><rect width="6" height="6"/></g>
<g transform="translate(520,200) scale(3.4333333333333)"><rect width="6" height="6"/></g>
<g transform="translate(540,200) scale(3.4333333333333)"><rect width="6" height="6"/></g>
<g transform="translate(580,200) scale(3.4333333333333)"><rect width="6" height="6"/></g>
<g transform="translate(600,200) scale(3.4333333333333)"><rect width="6" height="6"/></g>
<g transform="translate(680,200) scale(3.4333333333333)"><rect width="6" height="6"/></g>
<g transform="translate(700,200) scale(3.4333333333333)"><rect width="6" height="6"/></g>
<g transform="translate(720,200) scale(3.4333333333333)"><rect width="6" height="6"/></g>
<g transform="translate(760,200) scale(3.4333333333333)"><rect width="6" height="6"/></g>
<g transform="translate(800,200) scale(3.4333333333333)"><rect width="6" height="6"/></g>
<g transform="translate(820,200) scale(3.4333333333333)"><rect width="6" height="6"/></g>
<g transform="translate(840,200) scale(3.4333333333333)"><rect width="6" height="6"/></g>
<g transform="translate(860,200) scale(3.4333333333333)"><rect width="6" height="6"/></g>
<g transform="translate(880,200) scale(3.4333333333333)"><rect width="6" height="6"/></g>
<g transform="translate(60,220) scale(3.4333333333333)"><rect width="6" height="6"/></g>
<g transform="translate(240,220) scale(3.4333333333333)"><rect width="6" height="6"/></g>
<g transform="translate(260,220) scale(3.4333333333333)"><rect width="6" height="6"/></g>
<g transform="translate(280,220) scale(3.4333333333333)"><rect width="6" height="6"/></g>
<g transform="translate(300,220) scale(3.4333333333333)"><rect width="6" height="6"/></g>
<g transform="translate(340,220) scale(3.4333333333333)"><rect width="6" height="6"/></g>
<g transform="translate(400,220) scale(3.4333333333333)"><rect width="6" height="6"/></g>
<g transform="translate(460,220) scale(3.4333333333333)"><rect width="6" height="6"/></g>
<g transform="translate(480,220) scale(3.4333333333333)"><rect width="6" height="6"/></g>
<g transform="translate(520,220) scale(3.4333333333333)"><rect width="6" height="6"/></g>
<g transform="translate(640,220) scale(3.4333333333333)"><rect width="6" height="6"/></g>
<g transform="translate(700,220) scale(3.4333333333333)"><rect width="6" height="6"/></g>
<g transform="translate(760,220) scale(3.4333333333333)"><rect width="6" height="6"/></g>
<g transform="translate(780,220) scale(3.4333333333333)"><rect width="6" height="6"/></g>
<g transform="translate(800,220) scale(3.4333333333333)"><rect width="6" height="6"/></g>
<g transform="translate(820,220) scale(3.4333333333333)"><rect width="6" height="6"/></g>
<g transform="translate(40,240) scale(3.4333333333333)"><rect width="6" height="6"/></g>
<g transform="translate(100,240) scale(3.4333333333333)"><rect width="6" height="6"/></g>
<g transform="translate(120,240) scale(3.4333333333333)"><rect width="6" height="6"/></g>
<g transform="translate(160,240) scale(3.4333333333333)"><rect width="6" height="6"/></g>
<g transform="translate(200,240) scale(3.4333333333333)"><rect width="6" height="6"/></g>
<g transform="translate(280,240) scale(3.4333333333333)"><rect width="6" height="6"/></g>
<g transform="translate(300,240) scale(3.4333333333333)"><rect width="6" height="6"/></g>
<g transform="translate(360,240) scale(3.4333333333333)"><rect width="6" height="6"/></g>
<g transform="translate(480,240) scale(3.4333333333333)"><rect width="6" height="6"/></g>
<g transform="translate(500,240) scale(3.4333333333333)"><rect width="6" height="6"/></g>
<g transform="translate(540,240) scale(3.4333333333333)"><rect width="6" height="6"/></g>
<g transform="translate(580,240) scale(3.4333333333333)"><rect width="6" height="6"/></g>
<g transform="translate(640,240) scale(3.4333333333333)"><rect width="6" height="6"/></g>
<g transform="translate(660,240) scale(3.4333333333333)"><rect width="6" height="6"/></g>
<g transform="translate(680,240) scale(3.4333333333333)"><rect width="6" height="6"/></g>
<g transform="translate(700,240) scale(3.4333333333333)"><rect width="6" height="6"/></g>
<g transform="translate(760,240) scale(3.4333333333333)"><rect width="6" height="6"/></g>
<g transform="translate(780,240) scale(3.4333333333333)"><rect width="6" height="6"/></g>
<g transform="translate(860,240) scale(3.4333333333333)"><rect width="6" height="6"/></g>
<g transform="translate(880,240) scale(3.4333333333333)"><rect width="6" height="6"/></g>
<g transform="translate(60,260) scale(3.4333333333333)"><rect width="6" height="6"/></g>
<g transform="translate(100,260) scale(3.4333333333333)"><rect width="6" height="6"/></g>
<g transform="translate(120,260) scale(3.4333333333333)"><rect width="6" height="6"/></g>
<g transform="translate(140,260) scale(3.4333333333333)"><rect width="6" height="6"/></g>
<g transform="translate(260,260) scale(3.4333333333333)"><rect width="6" height="6"/></g>
<g transform="translate(280,260) scale(3.4333333333333)"><rect width="6" height="6"/></g>
<g transform="translate(300,260) scale(3.4333333333333)"><rect width="6" height="6"/></g>
<g transform="translate(320,260) scale(3.4333333333333)"><rect width="6" height="6"/></g>
<g transform="translate(460,260) scale(3.4333333333333)"><rect width="6" height="6"/></g>
<g transform="translate(500,260) scale(3.4333333333333)"><rect width="6" height="6"/></g>
<g transform="translate(520,260) scale(3.4333333333333)"><rect width="6" height="6"/></g>
<g transform="translate(560,260) scale(3.4333333333333)"><rect width="6" height="6"/></g>
<g transform="translate(580,260) scale(3.4333333333333)"><rect width="6" height="6"/></g>
<g transform="translate(620,260) scale(3.4333333333333)"><rect width="6" height="6"/></g>
<g transform="translate(640,260) scale(3.4333333333333)"><rect width="6" height="6"/></g>
<g transform="translate(660,260) scale(3.4333333333333)"><rect width="6" height="6"/></g>
<g transform="translate(680,260) scale(3.4333333333333)"><rect width="6" height="6"/></g>
<g transform="translate(700,260) scale(3.4333333333333)"><rect width="6" height="6"/></g>
<g transform="translate(720,260) scale(3.4333333333333)"><rect width="6" height="6"/></g>
<g transform="translate(760,260) scale(3.4333333333333)"><rect width="6" height="6"/></g>
<g transform="translate(860,260) scale(3.4333333333333)"><rect width="6" height="6"/></g>
<g transform="translate(40,280) scale(3.4333333333333)"><rect width="6" height="6"/></g>
<g transform="translate(100,280) scale(3.4333333333333)"><rect width="6" height="6"/></g>
<g transform="translate(120,280) scale(3.4333333333333)"><rect width="6" height="6"/></g>
<g transform="translate(140,280) scale(3.4333333333333)"><rect width="6" height="6"/></g>
<g transform="translate(160,280) scale(3.4333333333333)"><rect width="6" height="6"/></g>
<g transform="translate(240,280) scale(3.4333333333333)"><rect width="6" height="6"/></g>
<g transform="translate(260,280) scale(3.4333333333333)"><rect width="6" height="6"/></g>
<g transform="translate(280,280) scale(3.4333333333333)"><rect width="6" height="6"/></g>
<g transform="translate(340,280) scale(3.4333333333333)"><rect width="6" height="6"/></g>
<g transform="translate(360,280) scale(3.4333333333333)"><rect width="6" height="6"/></g>
<g transform="translate(400,280) scale(3.4333333333333)"><rect width="6" height="6"/></g>
<g transform="translate(520,280) scale(3.4333333333333)"><rect width="6" height="6"/></g>
<g transform="translate(540,280) scale(3.4333333333333)"><rect width="6" height="6"/></g>
<g transform="translate(560,280) scale(3.4333333333333)"><rect width="6" height="6"/></g>
<g transform="translate(580,280) scale(3.4333333333333)"><rect width="6" height="6"/></g>
<g transform="translate(640,280) scale(3.4333333333333)"><rect width="6" height="6"/></g>
<g transform="translate(700,280) scale(3.4333333333333)"><rect width="6" height="6"/></g>
<g transform="translate(720,280) scale(3.4333333333333)"><rect width="6" height="6"/></g>
<g transform="translate(820,280) scale(3.4333333333333)"><rect width="6" height="6"/></g>
<g transform="translate(840,280) scale(3.4333333333333)"><rect width="6" height="6"/></g>
<g transform="translate(860,280) scale(3.4333333333333)"><rect width="6" height="6"/></g>
<g transform="translate(880,280) scale(3.4333333333333)"><rect width="6" height="6"/></g>
<g transform="translate(40,300) scale(3.4333333333333)"><rect width="6" height="6"/></g>
<g transform="translate(100,300) scale(3.4333333333333)"><rect width="6" height="6"/></g>
<g transform="translate(120,300) scale(3.4333333333333)"><rect width="6" height="6"/></g>
<g transform="translate(180,300) scale(3.4333333333333)"><rect width="6" height="6"/></g>
<g transform="translate(320,300) scale(3.4333333333333)"><rect width="6" height="6"/></g>
<g transform="translate(360,300) scale(3.4333333333333)"><rect width="6" height="6"/></g>
<g transform="translate(400,300) scale(3.4333333333333)"><rect width="6" height="6"/></g>
<g transform="translate(420,300) scale(3.4333333333333)"><rect width="6" height="6"/></g>
<g transform="translate(520,300) scale(3.4333333333333)"><rect width="6" height="6"/></g>
<g transform="translate(560,300) scale(3.4333333333333)"><rect width="6" height="6"/></g>
<g transform="translate(580,300) scale(3.4333333333333)"><rect width="6" height="6"/></g>
<g transform="translate(600,300) scale(3.4333333333333)"><rect width="6" height="6"/></g>
<g transform="translate(620,300) scale(3.4333333333333)"><rect width="6" height="6"/></g>
<g transform="translate(640,300) scale(3.4333333333333)"><rect width="6" height="6"/></g>
<g transform="translate(660,300) scale(3.4333333333333)"><rect width="6" height="6"/></g>
<g transform="translate(680,300) scale(3.4333333333333)"><rect width="6" height="6"/></g>
<g transform="translate(800,300) scale(3.4333333333333)"><rect width="6" height="6"/></g>
<g transform="translate(820,300) scale(3.4333333333333)"><rect width="6" height="6"/></g>
<g transform="translate(840,300) scale(3.4333333333333)"><rect width="6" height="6"/></g>
<g transform="translate(880,300) scale(3.4333333333333)"><rect width="6" height="6"/></g>
<g transform="translate(40,320) scale(3.4333333333333)"><rect width="6" height="6"/></g>
<g transform="translate(60,320) scale(3.4333333333333)"><rect width="6" height="6"/></g>
<g transform="translate(80,320) scale(3.4333333333333)"><rect width="6" height="6"/></g>
<g transform="translate(120,320) scale(3.4333333333333)"><rect width="6" height="6"/></g>
<g transform="translate(140,320) scale(3.4333333333333)"><rect width="6" height="6"/></g>
<g transform="translate(160,320) scale(3.4333333333333)"><rect width="6" height="6"/></g>
<g transform="translate(220,320) scale(3.4333333333333)"><rect width="6" height="6"/></g>
<g transform="translate(280,320) scale(3.4333333333333)"><rect width="6" height="6"/></g>
<g transform="translate(320,320) scale(3.4333333333333)"><rect width="6" height="6"/></g>
<g transform="translate(340,320) scale(3.4333333333333)"><rect width="6" height="6"/></g>
<g transform="translate(400,320) scale(3.4333333333333)"><rect width="6" height="6"/></g>
<g transform="translate(440,320) scale(3.4333333333333)"><rect width="6" height="6"/></g>
<g transform="translate(500,320) scale(3.4333333333333)"><rect width="6" height="6"/></g>
<g transform="translate(540,320) scale(3.4333333333333)"><rect width="6" height="6"/></g>
<g transform="translate(580,320) scale(3.4333333333333)"><rect width="6" height="6"/></g>
<g transform="translate(640,320) scale(3.4333333333333)"><rect width="6" height="6"/></g>
<g transform="translate(680,320) scale(3.4333333333333)"><rect width="6" height="6"/></g>
<g transform="translate(720,320) scale(3.4333333333333)"><rect width="6" height="6"/></g>
<g transform="translate(760,320) scale(3.4333333333333)"><rect width="6" height="6"/></g>
<g transform="translate(780,320) scale(3.4333333333333)"><rect width="6" height="6"/></g>
<g transform="translate(820,320) scale(3.4333333333333)"><rect width="6" height="6"/></g>
<g transform="translate(860,320) scale(3.4333333333333)"><rect width="6" height="6"/></g>
<g transform="translate(920,320) scale(3.4333333333333)"><rect width="6" height="6"/></g>
<g transform="translate(60,340) scale(3.4333333333333)"><rect width="6" height="6"/></g>
<g transform="translate(100,340) scale(3.4333333333333)"><rect width="6" height="6"/></g>
<g transform="translate(220,340) scale(3.4333333333333)"><rect width="6" height="6"/></g>
<g transform="translate(280,340) scale(3.4333333333333)"><rect width="6" height="6"/></g>
<g transform="translate(340,340) scale(3.4333333333333)"><rect width="6" height="6"/></g>
<g transform="translate(380,340) scale(3.4333333333333)"><rect width="6" height="6"/></g>
<g transform="translate(440,340) scale(3.4333333333333)"><rect width="6" height="6"/></g>
<g transform="translate(480,340) scale(3.4333333333333)"><rect width="6" height="6"/></g>
<g transform="translate(520,340) scale(3.4333333333333)"><rect width="6" height="6"/></g>
<g transform="translate(560,340) scale(3.4333333333333)"><rect width="6" height="6"/></g>
<g transform="translate(580,340) scale(3.4333333333333)"><rect width="6" height="6"/></g>
<g transform="translate(600,340) scale(3.4333333333333)"><rect width="6" height="6"/></g>
<g transform="translate(620,340) scale(3.4333333333333)"><rect width="6" height="6"/></g>
<g transform="translate(640,340) scale(3.4333333333333)"><rect width="6" height="6"/></g>
<g transform="translate(660,340) scale(3.4333333333333)"><rect width="6" height="6"/></g>
<g transform="translate(680,340) scale(3.4333333333333)"><rect width="6" height="6"/></g>
<g transform="translate(700,340) scale(3.4333333333333)"><rect width="6" height="6"/></g>
<g transform="translate(760,340) scale(3.4333333333333)"><rect width="6" height="6"/></g>
<g transform="translate(820,340) scale(3.4333333333333)"><rect width="6" height="6"/></g>
<g transform="translate(880,340) scale(3.4333333333333)"><rect width="6" height="6"/></g>
<g transform="translate(80,360) scale(3.4333333333333)"><rect width="6" height="6"/></g>
<g transform="translate(140,360) scale(3.4333333333333)"><rect width="6" height="6"/></g>
<g transform="translate(160,360) scale(3.4333333333333)"><rect width="6" height="6"/></g>
<g transform="translate(200,360) scale(3.4333333333333)"><rect width="6" height="6"/></g>
<g transform="translate(260,360) scale(3.4333333333333)"><rect width="6" height="6"/></g>
<g transform="translate(380,360) scale(3.4333333333333)"><rect width="6" height="6"/></g>
<g transform="translate(400,360) scale(3.4333333333333)"><rect width="6" height="6"/></g>
<g transform="translate(520,360) scale(3.4333333333333)"><rect width="6" height="6"/></g>
<g transform="translate(580,360) scale(3.4333333333333)"><rect width="6" height="6"/></g>
<g transform="translate(620,360) scale(3.4333333333333)"><rect width="6" height="6"/></g>
<g transform="translate(740,360) scale(3.4333333333333)"><rect width="6" height="6"/></g>
<g transform="translate(780,360) scale(3.4333333333333)"><rect width="6" height="6"/></g>
<g transform="translate(860,360) scale(3.4333333333333)"><rect width="6" height="6"/></g>
<g transform="translate(900,360) scale(3.4333333333333)"><rect width="6" height="6"/></g>
<g transform="translate(40,380) scale(3.4333333333333)"><rect width="6" height="6"/></g>
<g transform="translate(60,380) scale(3.4333333333333)"><rect width="6" height="6"/></g>
<g transform="translate(80,380) scale(3.4333333333333)"><rect width="6" height="6"/></g>
<g transform="translate(120,380) scale(3.4333333333333)"><rect width="6" height="6"/></g>
<g transform="translate(140,380) scale(3.4333333333333)"><rect width="6" height="6"/></g>
<g transform="translate(180,380) scale(3.4333333333333)"><rect width="6" height="6"/></g>
<g transform="translate(200,380) scale(3.4333333333333)"><rect width="6" height="6"/></g>
<g transform="translate(240,380) scale(3.4333333333333)"><rect width="6" height="6"/></g>
<g transform="translate(260,380) scale(3.4333333333333)"><rect width="6" height="6"/></g>
<g transform="translate(300,380) scale(3.4333333333333)"><rect width="6" height="6"/></g>
<g transform="translate(320,380) scale(3.4333333333333)"><rect width="6" height="6"/></g>
<g transform="translate(360,380) scale(3.4333333333333)"><rect width="6" height="6"/></g>
<g transform="translate(380,380) scale(3.4333333333333)"><rect width="6" height="6"/></g>
<g transform="translate(440,380) scale(3.4333333333333)"><rect width="6" height="6"/></g>
<g transform="translate(460,380) scale(3.4333333333333)"><rect width="6" height="6"/></g>
<g transform="translate(500,380) scale(3.4333333333333)"><rect width="6" height="6"/></g>
<g transform="translate(520,380) scale(3.4333333333333)"><rect width="6" height="6"/></g>
<g transform="translate(580,380) scale(3.4333333333333)"><rect width="6" height="6"/></g>
<g transform="translate(660,380) scale(3.4333333333333)"><rect width="6" height="6"/></g>
<g transform="translate(680,380) scale(3.4333333333333)"><rect width="6" height="6"/></g>
<g transform="translate(740,380) scale(3.4333333333333)"><rect width="6" height="6"/></g>
<g transform="translate(760,380) scale(3.4333333333333)"><rect width="6" height="6"/></g>
<g transform="translate(780,380) scale(3.4333333333333)"><rect width="6" height="6"/></g>
<g transform="translate(820,380) scale(3.4333333333333)"><rect width="6" height="6"/></g>
<g transform="translate(860,380) scale(3.4333333333333)"><rect width="6" height="6"/></g>
<g transform="translate(900,380) scale(3.4333333333333)"><rect width="6" height="6"/></g>
<g transform="translate(920,380) scale(3.4333333333333)"><rect width="6" height="6"/></g>
<g transform="translate(60,400) scale(3.4333333333333)"><rect width="6" height="6"/></g>
<g transform="translate(80,400) scale(3.4333333333333)"><rect width="6" height="6"/></g>
<g transform="translate(100,400) scale(3.4333333333333)"><rect width="6" height="6"/></g>
<g transform="translate(160,400) scale(3.4333333333333)"><rect width="6" height="6"/></g>
<g transform="translate(220,400) scale(3.4333333333333)"><rect width="6" height="6"/></g>
<g transform="translate(280,400) scale(3.4333333333333)"><rect width="6" height="6"/></g>
<g transform="translate(340,400) scale(3.4333333333333)"><rect width="6" height="6"/></g>
<g transform="translate(400,400) scale(3.4333333333333)"><rect width="6" height="6"/></g>
<g transform="translate(420,400) scale(3.4333333333333)"><rect width="6" height="6"/></g>
<g transform="translate(460,400) scale(3.4333333333333)"><rect width="6" height="6"/></g>
<g transform="translate(500,400) scale(3.4333333333333)"><rect width="6" height="6"/></g>
<g transform="translate(520,400) scale(3.4333333333333)"><rect width="6" height="6"/></g>
<g transform="translate(580,400) scale(3.4333333333333)"><rect width="6" height="6"/></g>
<g transform="translate(620,400) scale(3.4333333333333)"><rect width="6" height="6"/></g>
<g transform="translate(660,400) scale(3.4333333333333)"><rect width="6" height="6"/></g>
<g transform="translate(760,400) scale(3.4333333333333)"><rect width="6" height="6"/></g>
<g transform="translate(780,400) scale(3.4333333333333)"><rect width="6" height="6"/></g>
<g transform="translate(820,400) scale(3.4333333333333)"><rect width="6" height="6"/></g>
<g transform="translate(840,400) scale(3.4333333333333)"><rect width="6" height="6"/></g>
<g transform="translate(900,400) scale(3.4333333333333)"><rect width="6" height="6"/></g>
<g transform="translate(40,420) scale(3.4333333333333)"><rect width="6" height="6"/></g>
<g transform="translate(60,420) scale(3.4333333333333)"><rect width="6" height="6"/></g>
<g transform="translate(80,420) scale(3.4333333333333)"><rect width="6" height="6"/></g>
<g transform="translate(100,420) scale(3.4333333333333)"><rect width="6" height="6"/></g>
<g transform="translate(120,420) scale(3.4333333333333)"><rect width="6" height="6"/></g>
<g transform="translate(140,420) scale(3.4333333333333)"><rect width="6" height="6"/></g>
<g transform="translate(240,420) scale(3.4333333333333)"><rect width="6" height="6"/></g>
<g transform="translate(260,420) scale(3.4333333333333)"><rect width="6" height="6"/></g>
<g transform="translate(300,420) scale(3.4333333333333)"><rect width="6" height="6"/></g>
<g transform="translate(320,420) scale(3.4333333333333)"><rect width="6" height="6"/></g>
<g transform="translate(440,420) scale(3.4333333333333)"><rect width="6" height="6"/></g>
<g transform="translate(460,420) scale(3.4333333333333)"><rect width="6" height="6"/></g>
<g transform="translate(500,420) scale(3.4333333333333)"><rect width="6" height="6"/></g>
<g transform="translate(580,420) scale(3.4333333333333)"><rect width="6" height="6"/></g>
<g transform="translate(720,420) scale(3.4333333333333)"><rect width="6" height="6"/></g>
<g transform="translate(760,420) scale(3.4333333333333)"><rect width="6" height="6"/></g>
<g transform="translate(780,420) scale(3.4333333333333)"><rect width="6" height="6"/></g>
<g transform="translate(800,420) scale(3.4333333333333)"><rect width="6" height="6"/></g>
<g transform="translate(820,420) scale(3.4333333333333)"><rect width="6" height="6"/></g>
<g transform="translate(840,420) scale(3.4333333333333)"><rect width="6" height="6"/></g>
<g transform="translate(860,420) scale(3.4333333333333)"><rect width="6" height="6"/></g>
<g transform="translate(880,420) scale(3.4333333333333)"><rect width="6" height="6"/></g>
<g transform="translate(900,420) scale(3.4333333333333)"><rect width="6" height="6"/></g>
<g transform="translate(80,440) scale(3.4333333333333)"><rect width="6" height="6"/></g>
<g transform="translate(120,440) scale(3.4333333333333)"><rect width="6" height="6"/></g>
<g transform="translate(140,440) scale(3.4333333333333)"><rect width="6" height="6"/></g>
<g transform="translate(160,440) scale(3.4333333333333)"><rect width="6" height="6"/></g>
<g transform="translate(180,440) scale(3.4333333333333)"><rect width="6" height="6"/></g>
<g transform="translate(200,440) scale(3.4333333333333)"><rect width="6" height="6"/></g>
<g transform="translate(240,440) scale(3.4333333333333)"><rect width="6" height="6"/></g>
<g transform="translate(260,440) scale(3.4333333333333)"><rect width="6" height="6"/></g>
<g transform="translate(280,440) scale(3.4333333333333)"><rect width="6" height="6"/></g>
<g transform="translate(320,440) scale(3.4333333333333)"><rect width="6" height="6"/></g>
<g transform="translate(340,440) scale(3.4333333333333)"><rect width="6" height="6"/></g>
<g transform="translate(360,440) scale(3.4333333333333)"><rect width="6" height="6"/></g>
<g transform="translate(400,440) scale(3.4333333333333)"><rect width="6" height="6"/></g>
<g transform="translate(420,440) scale(3.4333333333333)"><rect width="6" height="6"/></g>
<g transform="translate(440,440) scale(3.4333333333333)"><rect width="6" height="6"/></g>
<g transform="translate(460,440) scale(3.4333333333333)"><rect width="6" height="6"/></g>
<g transform="translate(480,440) scale(3.4333333333333)"><rect width="6" height="6"/></g>
<g transform="translate(500,440) scale(3.4333333333333)"><rect width="6" height="6"/></g>
<g transform="translate(520,440) scale(3.4333333333333)"><rect width="6" height="6"/></g>
<g transform="translate(580,440) scale(3.4333333333333)"><rect width="6" height="6"/></g>
<g transform="translate(600,440) scale(3.4333333333333)"><rect width="6" height="6"/></g>
<g transform="translate(620,440) scale(3.4333333333333)"><rect width="6" height="6"/></g>
<g transform="translate(700,440) scale(3.4333333333333)"><rect width="6" height="6"/></g>
<g transform="translate(720,440) scale(3.4333333333333)"><rect width="6" height="6"/></g>
<g transform="translate(740,440) scale(3.4333333333333)"><rect width="6" height="6"/></g>
<g transform="translate(760,440) scale(3.4333333333333)"><rect width="6" height="6"/></g>
<g transform="translate(780,440) scale(3.4333333333333)"><rect width="6" height="6"/></g>
<g transform="translate(800,440) scale(3.4333333333333)"><rect width="6" height="6"/></g>
<g transform="translate(820,440) scale(3.4333333333333)"><rect width="6" height="6"/></g>
<g transform="translate(840,440) scale(3.4333333333333)"><rect width="6" height="6"/></g>
<g transform="translate(860,440) scale(3.4333333333333)"><rect width="6" height="6"/></g>
<g transform="translate(120,460) scale(3.4333333333333)"><rect width="6" height="6"/></g>
<g transform="translate(200,460) scale(3.4333333333333)"><rect width="6" height="6"/></g>
<g transform="translate(220,460) scale(3.4333333333333)"><rect width="6" height="6"/></g>
<g transform="translate(240,460) scale(3.4333333333333)"><rect width="6" height="6"/></g>
<g transform="translate(260,460) scale(3.4333333333333)"><rect width="6" height="6"/></g>
<g transform="translate(300,460) scale(3.4333333333333)"><rect width="6" height="6"/></g>
<g transform="translate(320,460) scale(3.4333333333333)"><rect width="6" height="6"/></g>
<g transform="translate(340,460) scale(3.4333333333333)"><rect width="6" height="6"/></g>
<g transform="translate(360,460) scale(3.4333333333333)"><rect width="6" height="6"/></g>
<g transform="translate(400,460) scale(3.4333333333333)"><rect width="6" height="6"/></g>
<g transform="translate(420,460) scale(3.4333333333333)"><rect width="6" height="6"/></g>
<g transform="translate(440,460) scale(3.4333333333333)"><rect width="6" height="6"/></g>
<g transform="translate(520,460) scale(3.4333333333333)"><rect width="6" height="6"/></g>
<g transform="translate(600,460) scale(3.4333333333333)"><rect width="6" height="6"/></g>
<g transform="translate(640,460) scale(3.4333333333333)"><rect width="6" height="6"/></g>
<g transform="translate(660,460) scale(3.4333333333333)"><rect width="6" height="6"/></g>
<g transform="translate(760,460) scale(3.4333333333333)"><rect width="6" height="6"/></g>
<g transform="translate(840,460) scale(3.4333333333333)"><rect width="6" height="6"/></g>
<g transform="translate(880,460) scale(3.4333333333333)"><rect width="6" height="6"/></g>
<g transform="translate(40,480) scale(3.4333333333333)"><rect width="6" height="6"/></g>
<g transform="translate(120,480) scale(3.4333333333333)"><rect width="6" height="6"/></g>
<g transform="translate(160,480) scale(3.4333333333333)"><rect width="6" height="6"/></g>
<g transform="translate(200,480) scale(3.4333333333333)"><rect width="6" height="6"/></g>
<g transform="translate(240,480) scale(3.4333333333333)"><rect width="6" height="6"/></g>
<g transform="translate(260,480) scale(3.4333333333333)"><rect width="6" height="6"/></g>
<g transform="translate(280,480) scale(3.4333333333333)"><rect width="6" height="6"/></g>
<g transform="translate(300,480) scale(3.4333333333333)"><rect width="6" height="6"/></g>
<g transform="translate(400,480) scale(3.4333333333333)"><rect width="6" height="6"/></g>
<g transform="translate(440,480) scale(3.4333333333333)"><rect width="6" height="6"/></g>
<g transform="translate(480,480) scale(3.4333333333333)"><rect width="6" height="6"/></g>
<g transform="translate(520,480) scale(3.4333333333333)"><rect width="6" height="6"/></g>
<g transform="translate(560,480) scale(3.4333333333333)"><rect width="6" height="6"/></g>
<g transform="translate(580,480) scale(3.4333333333333)"><rect width="6" height="6"/></g>
<g transform="translate(720,480) scale(3.4333333333333)"><rect width="6" height="6"/></g>
<g transform="translate(740,480) scale(3.4333333333333)"><rect width="6" height="6"/></g>
<g transform="translate(760,480) scale(3.4333333333333)"><rect width="6" height="6"/></g>
<g transform="translate(800,480) scale(3.4333333333333)"><rect width="6" height="6"/></g>
<g transform="translate(840,480) scale(3.4333333333333)"><rect width="6" height="6"/></g>
<g transform="translate(860,480) scale(3.4333333333333)"><rect width="6" height="6"/></g>
<g transform="translate(920,480) scale(3.4333333333333)"><rect width="6" height="6"/></g>
<g transform="translate(40,500) scale(3.4333333333333)"><rect width="6" height="6"/></g>
<g transform="translate(80,500) scale(3.4333333333333)"><rect width="6" height="6"/></g>
<g transform="translate(120,500) scale(3.4333333333333)"><rect width="6" height="6"/></g>
<g transform="translate(200,500) scale(3.4333333333333)"><rect width="6" height="6"/></g>
<g transform="translate(240,500) scale(3.4333333333333)"><rect width="6" height="6"/></g>
<g transform="translate(260,500) scale(3.4333333333333)"><rect width="6" height="6"/></g>
<g transform="translate(280,500) scale(3.4333333333333)"><rect width="6" height="6"/></g>
<g transform="translate(340,500) scale(3.4333333333333)"><rect width="6" height="6"/></g>
<g transform="translate(380,500) scale(3.4333333333333)"><rect width="6" height="6"/></g>
<g transform="translate(400,500) scale(3.4333333333333)"><rect width="6" height="6"/></g>
<g transform="translate(420,500) scale(3.4333333333333)"><rect width="6" height="6"/></g>
<g transform="translate(440,500) scale(3.4333333333333)"><rect width="6" height="6"/></g>
<g transform="translate(520,500) scale(3.4333333333333)"><rect width="6" height="6"/></g>
<g transform="translate(540,500) scale(3.4333333333333)"><rect width="6" height="6"/></g>
<g transform="translate(600,500) scale(3.4333333333333)"><rect width="6" height="6"/></g>
<g transform="translate(660,500) scale(3.4333333333333)"><rect width="6" height="6"/></g>
<g transform="translate(760,500) scale(3.4333333333333)"><rect width="6" height="6"/></g>
<g transform="translate(840,500) scale(3.4333333333333)"><rect width="6" height="6"/></g>
<g transform="translate(880,500) scale(3.4333333333333)"><rect width="6" height="6"/></g>
<g transform="translate(900,500) scale(3.4333333333333)"><rect width="6" height="6"/></g>
<g transform="translate(40,520) scale(3.4333333333333)"><rect width="6" height="6"/></g>
<g transform="translate(60,520) scale(3.4333333333333)"><rect width="6" height="6"/></g>
<g transform="translate(120,520) scale(3.4333333333333)"><rect width="6" height="6"/></g>
<g transform="translate(140,520) scale(3.4333333333333)"><rect width="6" height="6"/></g>
<g transform="translate(160,520) scale(3.4333333333333)"><rect width="6" height="6"/></g>
<g transform="translate(180,520) scale(3.4333333333333)"><rect width="6" height="6"/></g>
<g transform="translate(200,520) scale(3.4333333333333)"><rect width="6" height="6"/></g>
<g transform="translate(220,520) scale(3.4333333333333)"><rect width="6" height="6"/></g>
<g transform="translate(340,520) scale(3.4333333333333)"><rect width="6" height="6"/></g>
<g transform="translate(360,520) scale(3.4333333333333)"><rect width="6" height="6"/></g>
<g transform="translate(400,520) scale(3.4333333333333)"><rect width="6" height="6"/></g>
<g transform="translate(440,520) scale(3.4333333333333)"><rect width="6" height="6"/></g>
<g transform="translate(460,520) scale(3.4333333333333)"><rect width="6" height="6"/></g>
<g transform="translate(480,520) scale(3.4333333333333)"><rect width="6" height="6"/></g>
<g transform="translate(500,520) scale(3.4333333333333)"><rect width="6" height="6"/></g>
<g transform="translate(520,520) scale(3.4333333333333)"><rect width="6" height="6"/></g>
<g transform="translate(540,520) scale(3.4333333333333)"><rect width="6" height="6"/></g>
<g transform="translate(560,520) scale(3.4333333333333)"><rect width="6" height="6"/></g>
<g transform="translate(580,520) scale(3.4333333333333)"><rect width="6" height="6"/></g>
<g transform="translate(640,520) scale(3.4333333333333)"><rect width="6" height="6"/></g>
<g transform="translate(720,520) scale(3.4333333333333)"><rect width="6" height="6"/></g>
<g transform="translate(760,520) scale(3.4333333333333)"><rect width="6" height="6"/></g>
<g transform="translate(780,520) scale(3.4333333333333)"><rect width="6" height="6"/></g>
<g transform="translate(800,520) scale(3.4333333333333)"><rect width="6" height="6"/></g>
<g transform="translate(820,520) scale(3.4333333333333)"><rect width="6" height="6"/></g>
<g transform="translate(840,520) scale(3.4333333333333)"><rect width="6" height="6"/></g>
<g transform="translate(40,540) scale(3.4333333333333)"><rect width="6" height="6"/></g>
<g transform="translate(80,540) scale(3.4333333333333)"><rect width="6" height="6"/></g>
<g transform="translate(120,540) scale(3.4333333333333)"><rect width="6" height="6"/></g>
<g transform="translate(220,540) scale(3.4333333333333)"><rect width="6" height="6"/></g>
<g transform="translate(240,540) scale(3.4333333333333)"><rect width="6" height="6"/></g>
<g transform="translate(260,540) scale(3.4333333333333)"><rect width="6" height="6"/></g>
<g transform="translate(280,540) scale(3.4333333333333)"><rect width="6" height="6"/></g>
<g transform="translate(320,540) scale(3.4333333333333)"><rect width="6" height="6"/></g>
<g transform="translate(360,540) scale(3.4333333333333)"><rect width="6" height="6"/></g>
<g transform="translate(380,540) scale(3.4333333333333)"><rect width="6" height="6"/></g>
<g transform="translate(400,540) scale(3.4333333333333)"><rect width="6" height="6"/></g>
<g transform="translate(620,540) scale(3.4333333333333)"><rect width="6" height="6"/></g>
<g transform="translate(640,540) scale(3.4333333333333)"><rect width="6" height="6"/></g>
<g transform="translate(680,540) scale(3.4333333333333)"><rect width="6" height="6"/></g>
<g transform="translate(700,540) scale(3.4333333333333)"><rect width="6" height="6"/></g>
<g transform="translate(760,540) scale(3.4333333333333)"><rect width="6" height="6"/></g>
<g transform="translate(880,540) scale(3.4333333333333)"><rect width="6" height="6"/></g>
<g transform="translate(80,560) scale(3.4333333333333)"><rect width="6" height="6"/></g>
<g transform="translate(140,560) scale(3.4333333333333)"><rect width="6" height="6"/></g>
<g transform="translate(160,560) scale(3.4333333333333)"><rect width="6" height="6"/></g>
<g transform="translate(180,560) scale(3.4333333333333)"><rect width="6" height="6"/></g>
<g transform="translate(220,560) scale(3.4333333333333)"><rect width="6" height="6"/></g>
<g transform="translate(300,560) scale(3.4333333333333)"><rect width="6" height="6"/></g>
<g transform="translate(320,560) scale(3.4333333333333)"><rect width="6" height="6"/></g>
<g transform="translate(360,560) scale(3.4333333333333)"><rect width="6" height="6"/></g>
<g transform="translate(420,560) scale(3.4333333333333)"><rect width="6" height="6"/></g>
<g transform="translate(460,560) scale(3.4333333333333)"><rect width="6" height="6"/></g>
<g transform="translate(480,560) scale(3.4333333333333)"><rect width="6" height="6"/></g>
<g transform="translate(500,560) scale(3.4333333333333)"><rect width="6" height="6"/></g>
<g transform="translate(540,560) scale(3.4333333333333)"><rect width="6" height="6"/></g>
<g transform="translate(560,560) scale(3.4333333333333)"><rect width="6" height="6"/></g>
<g transform="translate(580,560) scale(3.4333333333333)"><rect width="6" height="6"/></g>
<g transform="translate(620,560) scale(3.4333333333333)"><rect width="6" height="6"/></g>
<g transform="translate(640,560) scale(3.4333333333333)"><rect width="6" height="6"/></g>
<g transform="translate(680,560) scale(3.4333333333333)"><rect width="6" height="6"/></g>
<g transform="translate(720,560) scale(3.4333333333333)"><rect width="6" height="6"/></g>
<g transform="translate(800,560) scale(3.4333333333333)"><rect width="6" height="6"/></g>
<g transform="translate(840,560) scale(3.4333333333333)"><rect width="6" height="6"/></g>
<g transform="translate(60,580) scale(3.4333333333333)"><rect width="6" height="6"/></g>
<g transform="translate(80,580) scale(3.4333333333333)"><rect width="6" height="6"/></g>
<g transform="translate(120,580) scale(3.4333333333333)"><rect width="6" height="6"/></g>
<g transform="translate(140,580) scale(3.4333333333333)"><rect width="6" height="6"/></g>
<g transform="translate(240,580) scale(3.4333333333333)"><rect width="6" height="6"/></g>
<g transform="translate(260,580) scale(3.4333333333333)"><rect width="6" height="6"/></g>
<g transform="translate(280,580) scale(3.4333333333333)"><rect width="6" height="6"/></g>
<g transform="translate(300,580) scale(3.4333333333333)"><rect width="6" height="6"/></g>
<g transform="translate(320,580) scale(3.4333333333333)"><rect width="6" height="6"/></g>
<g transform="translate(340,580) scale(3.4333333333333)"><rect width="6" height="6"/></g>
<g transform="translate(360,580) scale(3.4333333333333)"><rect width="6" height="6"/></g>
<g transform="translate(480,580) scale(3.4333333333333)"><rect width="6" height="6"/></g>
<g transform="translate(600,580) scale(3.4333333333333)"><rect width="6" height="6"/></g>
<g transform="translate(620,580) scale(3.4333333333333)"><rect width="6" height="6"/></g>
<g transform="translate(700,580) scale(3.4333333333333)"><rect width="6" height="6"/></g>
<g transform="translate(720,580) scale(3.4333333333333)"><rect width="6" height="6"/></g>
<g transform="translate(760,580) scale(3.4333333333333)"><rect width="6" height="6"/></g>
<g transform="translate(820,580) scale(3.4333333333333)"><rect width="6" height="6"/></g>
<g transform="translate(840,580) scale(3.4333333333333)"><rect width="6" height="6"/></g>
<g transform="translate(900,580) scale(3.4333333333333)"><rect width="6" height="6"/></g>
<g transform="translate(60,600) scale(3.4333333333333)"><rect width="6" height="6"/></g>
<g transform="translate(80,600) scale(3.4333333333333)"><rect width="6" height="6"/></g>
<g transform="translate(160,600) scale(3.4333333333333)"><rect width="6" height="6"/></g>
<g transform="translate(180,600) scale(3.4333333333333)"><rect width="6" height="6"/></g>
<g transform="translate(200,600) scale(3.4333333333333)"><rect width="6" height="6"/></g>
<g transform="translate(280,600) scale(3.4333333333333)"><rect width="6" height="6"/></g>
<g transform="translate(300,600) scale(3.4333333333333)"><rect width="6" height="6"/></g>
<g transform="translate(320,600) scale(3.4333333333333)"><rect width="6" height="6"/></g>
<g transform="translate(340,600) scale(3.4333333333333)"><rect width="6" height="6"/></g>
<g transform="translate(360,600) scale(3.4333333333333)"><rect width="6" height="6"/></g>
<g transform="translate(400,600) scale(3.4333333333333)"><rect width="6" height="6"/></g>
<g transform="translate(460,600) scale(3.4333333333333)"><rect width="6" height="6"/></g>
<g transform="translate(520,600) scale(3.4333333333333)"><rect width="6" height="6"/></g>
<g transform="translate(540,600) scale(3.4333333333333)"><rect width="6" height="6"/></g>
<g transform="translate(580,600) scale(3.4333333333333)"><rect width="6" height="6"/></g>
<g transform="translate(620,600) scale(3.4333333333333)"><rect width="6" height="6"/></g>
<g transform="translate(640,600) scale(3.4333333333333)"><rect width="6" height="6"/></g>
<g transform="translate(660,600) scale(3.4333333333333)"><rect width="6" height="6"/></g>
<g transform="translate(720,600) scale(3.4333333333333)"><rect width="6" height="6"/></g>
<g transform="translate(740,600) scale(3.4333333333333)"><rect width="6" height="6"/></g>
<g transform="translate(840,600) scale(3.4333333333333)"><rect width="6" height="6"/></g>
<g transform="translate(860,600) scale(3.4333333333333)"><rect width="6" height="6"/></g>
<g transform="translate(900,600) scale(3.4333333333333)"><rect width="6" height="6"/></g>
<g transform="translate(40,620) scale(3.4333333333333)"><rect width="6" height="6"/></g>
<g transform="translate(60,620) scale(3.4333333333333)"><rect width="6" height="6"/></g>
<g transform="translate(80,620) scale(3.4333333333333)"><rect width="6" height="6"/></g>
<g transform="translate(140,620) scale(3.4333333333333)"><rect width="6" height="6"/></g>
<g transform="translate(180,620) scale(3.4333333333333)"><rect width="6" height="6"/></g>
<g transform="translate(240,620) scale(3.4333333333333)"><rect width="6" height="6"/></g>
<g transform="translate(260,620) scale(3.4333333333333)"><rect width="6" height="6"/></g>
<g transform="translate(320,620) scale(3.4333333333333)"><rect width="6" height="6"/></g>
<g transform="translate(380,620) scale(3.4333333333333)"><rect width="6" height="6"/></g>
<g transform="translate(420,620) scale(3.4333333333333)"><rect width="6" height="6"/></g>
<g transform="translate(460,620) scale(3.4333333333333)"><rect width="6" height="6"/></g>
<g transform="translate(480,620) scale(3.4333333333333)"><rect width="6" height="6"/></g>
<g transform="translate(500,620) scale(3.4333333333333)"><rect width="6" height="6"/></g>
<g transform="translate(520,620) scale(3.4333333333333)"><rect width="6" height="6"/></g>
<g transform="translate(580,620) scale(3.4333333333333)"><rect width="6" height="6"/></g>
<g transform="translate(660,620) scale(3.4333333333333)"><rect width="6" height="6"/></g>
<g transform="translate(680,620) scale(3.4333333333333)"><rect width="6" height="6"/></g>
<g transform="translate(700,620) scale(3.4333333333333)"><rect width="6" height="6"/></g>
<g transform="translate(760,620) scale(3.4333333333333)"><rect width="6" height="6"/></g>
<g transform="translate(820,620) scale(3.4333333333333)"><rect width="6" height="6"/></g>
<g transform="translate(860,620) scale(3.4333333333333)"><rect width="6" height="6"/></g>
<g transform="translate(880,620) scale(3.4333333333333)"><rect width="6" height="6"/></g>
<g transform="translate(900,620) scale(3.4333333333333)"><rect width="6" height="6"/></g>
<g transform="translate(920,620) scale(3.4333333333333)"><rect width="6" height="6"/></g>
<g transform="translate(40,640) scale(3.4333333333333)"><rect width="6" height="6"/></g>
<g transform="translate(80,640) scale(3.4333333333333)"><rect width="6" height="6"/></g>
<g transform="translate(160,640) scale(3.4333333333333)"><rect width="6" height="6"/></g>
<g transform="translate(280,640) scale(3.4333333333333)"><rect width="6" height="6"/></g>
<g transform="translate(300,640) scale(3.4333333333333)"><rect width="6" height="6"/></g>
<g transform="translate(320,640) scale(3.4333333333333)"><rect width="6" height="6"/></g>
<g transform="translate(340,640) scale(3.4333333333333)"><rect width="6" height="6"/></g>
<g transform="translate(360,640) scale(3.4333333333333)"><rect width="6" height="6"/></g>
<g transform="translate(400,640) scale(3.4333333333333)"><rect width="6" height="6"/></g>
<g transform="translate(460,640) scale(3.4333333333333)"><rect width="6" height="6"/></g>
<g transform="translate(580,640) scale(3.4333333333333)"><rect width="6" height="6"/></g>
<g transform="translate(600,640) scale(3.4333333333333)"><rect width="6" height="6"/></g>
<g transform="translate(620,640) scale(3.4333333333333)"><rect width="6" height="6"/></g>
<g transform="translate(640,640) scale(3.4333333333333)"><rect width="6" height="6"/></g>
<g transform="translate(760,640) scale(3.4333333333333)"><rect width="6" height="6"/></g>
<g transform="translate(800,640) scale(3.4333333333333)"><rect width="6" height="6"/></g>
<g transform="translate(820,640) scale(3.4333333333333)"><rect width="6" height="6"/></g>
<g transform="translate(840,640) scale(3.4333333333333)"><rect width="6" height="6"/></g>
<g transform="translate(880,640) scale(3.4333333333333)"><rect width="6" height="6"/></g>
<g transform="translate(900,640) scale(3.4333333333333)"><rect width="6" height="6"/></g>
<g transform="translate(920,640) scale(3.4333333333333)"><rect width="6" height="6"/></g>
<g transform="translate(100,660) scale(3.4333333333333)"><rect width="6" height="6"/></g>
<g transform="translate(140,660) scale(3.4333333333333)"><rect width="6" height="6"/></g>
<g transform="translate(200,660) scale(3.4333333333333)"><rect width="6" height="6"/></g>
<g transform="translate(260,660) scale(3.4333333333333)"><rect width="6" height="6"/></g>
<g transform="translate(320,660) scale(3.4333333333333)"><rect width="6" height="6"/></g>
<g transform="translate(380,660) scale(3.4333333333333)"><rect width="6" height="6"/></g>
<g transform="translate(400,660) scale(3.4333333333333)"><rect width="6" height="6"/></g>
<g transform="translate(420,660) scale(3.4333333333333)"><rect width="6" height="6"/></g>
<g transform="translate(460,660) scale(3.4333333333333)"><rect width="6" height="6"/></g>
<g transform="translate(480,660) scale(3.4333333333333)"><rect width="6" height="6"/></g>
<g transform="translate(520,660) scale(3.4333333333333)"><rect width="6" height="6"/></g>
<g transform="translate(540,660) scale(3.4333333333333)"><rect width="6" height="6"/></g>
<g transform="translate(560,660) scale(3.4333333333333)"><rect width="6" height="6"/></g>
<g transform="translate(580,660) scale(3.4333333333333)"><rect width="6" height="6"/></g>
<g transform="translate(660,660) scale(3.4333333333333)"><rect width="6" height="6"/></g>
<g transform="translate(700,660) scale(3.4333333333333)"><rect width="6" height="6"/></g>
<g transform="translate(740,660) scale(3.4333333333333)"><rect width="6" height="6"/></g>
<g transform="translate(760,660) scale(3.4333333333333)"><rect width="6" height="6"/></g>
<g transform="translate(800,660) scale(3.4333333333333)"><rect width="6" height="6"/></g>
<g transform="translate(820,660) scale(3.4333333333333)"><rect width="6" height="6"/></g>
<g transform="translate(840,660) scale(3.4333333333333)"><rect width="6" height="6"/></g>
<g transform="translate(880,660) scale(3.4333333333333)"><rect width="6" height="6"/></g>
<g transform="translate(920,660) scale(3.4333333333333)"><rect width="6" height="6"/></g>
<g transform="translate(140,680) scale(3.4333333333333)"><rect width="6" height="6"/></g>
<g transform="translate(160,680) scale(3.4333333333333)"><rect width="6" height="6"/></g>
<g transform="translate(180,680) scale(3.4333333333333)"><rect width="6" height="6"/></g>
<g transform="translate(220,680) scale(3.4333333333333)"><rect width="6" height="6"/></g>
<g transform="translate(260,680) scale(3.4333333333333)"><rect width="6" height="6"/></g>
<g transform="translate(280,680) scale(3.4333333333333)"><rect width="6" height="6"/></g>
<g transform="translate(300,680) scale(3.4333333333333)"><rect width="6" height="6"/></g>
<g transform="translate(340,680) scale(3.4333333333333)"><rect width="6" height="6"/></g>
<g transform="translate(360,680) scale(3.4333333333333)"><rect width="6" height="6"/></g>
<g transform="translate(460,680) scale(3.4333333333333)"><rect width="6" height="6"/></g>
<g transform="translate(580,680) scale(3.4333333333333)"><rect width="6" height="6"/></g>
<g transform="translate(600,680) scale(3.4333333333333)"><rect width="6" height="6"/></g>
<g transform="translate(620,680) scale(3.4333333333333)"><rect width="6" height="6"/></g>
<g transform="translate(700,680) scale(3.4333333333333)"><rect width="6" height="6"/></g>
<g transform="translate(720,680) scale(3.4333333333333)"><rect width="6" height="6"/></g>
<g transform="translate(780,680) scale(3.4333333333333)"><rect width="6" height="6"/></g>
<g transform="translate(820,680) scale(3.4333333333333)"><rect width="6" height="6"/></g>
<g transform="translate(840,680) scale(3.4333333333333)"><rect width="6" height="6"/></g>
<g transform="translate(860,680) scale(3.4333333333333)"><rect width="6" height="6"/></g>
<g transform="translate(880,680) scale(3.4333333333333)"><rect width="6" height="6"/></g>
<g transform="translate(40,700) scale(3.4333333333333)"><rect width="6" height="6"/></g>
<g transform="translate(60,700) scale(3.4333333333333)"><rect width="6" height="6"/></g>
<g transform="translate(80,700) scale(3.4333333333333)"><rect width="6" height="6"/></g>
<g transform="translate(100,700) scale(3.4333333333333)"><rect width="6" height="6"/></g>
<g transform="translate(120,700) scale(3.4333333333333)"><rect width="6" height="6"/></g>
<g transform="translate(140,700) scale(3.4333333333333)"><rect width="6" height="6"/></g>
<g transform="translate(220,700) scale(3.4333333333333)"><rect width="6" height="6"/></g>
<g transform="translate(240,700) scale(3.4333333333333)"><rect width="6" height="6"/></g>
<g transform="translate(280,700) scale(3.4333333333333)"><rect width="6" height="6"/></g>
<g transform="translate(320,700) scale(3.4333333333333)"><rect width="6" height="6"/></g>
<g transform="translate(380,700) scale(3.4333333333333)"><rect width="6" height="6"/></g>
<g transform="translate(400,700) scale(3.4333333333333)"><rect width="6" height="6"/></g>
<g transform="translate(420,700) scale(3.4333333333333)"><rect width="6" height="6"/></g>
<g transform="translate(520,700) scale(3.4333333333333)"><rect width="6" height="6"/></g>
<g transform="translate(560,700) scale(3.4333333333333)"><rect width="6" height="6"/></g>
<g transform="translate(580,700) scale(3.4333333333333)"><rect width="6" height="6"/></g>
<g transform="translate(640,700) scale(3.4333333333333)"><rect width="6" height="6"/></g>
<g transform="translate(660,700) scale(3.4333333333333)"><rect width="6" height="6"/></g>
<g transform="translate(720,700) scale(3.4333333333333)"><rect width="6" height="6"/></g>
<g transform="translate(800,700) scale(3.4333333333333)"><rect width="6" height="6"/></g>
<g transform="translate(820,700) scale(3.4333333333333)"><rect width="6" height="6"/></g>
<g transform="translate(840,700) scale(3.4333333333333)"><rect width="6" height="6"/></g>
<g transform="translate(880,700) scale(3.4333333333333)"><rect width="6" height="6"/></g>
<g transform="translate(120,720) scale(3.4333333333333)"><rect width="6" height="6"/></g>
<g transform="translate(160,720) scale(3.4333333333333)"><rect width="6" height="6"/></g>
<g transform="translate(220,720) scale(3.4333333333333)"><rect width="6" height="6"/></g>
<g transform="translate(260,720) scale(3.4333333333333)"><rect width="6" height="6"/></g>
<g transform="translate(280,720) scale(3.4333333333333)"><rect width="6" height="6"/></g>
<g transform="translate(300,720) scale(3.4333333333333)"><rect width="6" height="6"/></g>
<g transform="translate(400,720) scale(3.4333333333333)"><rect width="6" height="6"/></g>
<g transform="translate(420,720) scale(3.4333333333333)"><rect width="6" height="6"/></g>
<g transform="translate(460,720) scale(3.4333333333333)"><rect width="6" height="6"/></g>
<g transform="translate(480,720) scale(3.4333333333333)"><rect width="6" height="6"/></g>
<g transform="translate(500,720) scale(3.4333333333333)"><rect width="6" height="6"/></g>
<g transform="translate(520,720) scale(3.4333333333333)"><rect width="6" height="6"/></g>
<g transform="translate(540,720) scale(3.4333333333333)"><rect width="6" height="6"/></g>
<g transform="translate(560,720) scale(3.4333333333333)"><rect width="6" height="6"/></g>
<g transform="translate(580,720) scale(3.4333333333333)"><rect width="6" height="6"/></g>
<g transform="translate(600,720) scale(3.4333333333333)"><rect width="6" height="6"/></g>
<g transform="translate(620,720) scale(3.4333333333333)"><rect width="6" height="6"/></g>
<g transform="translate(640,720) scale(3.4333333333333)"><rect width="6" height="6"/></g>
<g transform="translate(680,720) scale(3.4333333333333)"><rect width="6" height="6"/></g>
<g transform="translate(720,720) scale(3.4333333333333)"><rect width="6" height="6"/></g>
<g transform="translate(740,720) scale(3.4333333333333)"><rect width="6" height="6"/></g>
<g transform="translate(760,720) scale(3.4333333333333)"><rect width="6" height="6"/></g>
<g transform="translate(800,720) scale(3.4333333333333)"><rect width="6" height="6"/></g>
<g transform="translate(860,720) scale(3.4333333333333)"><rect width="6" height="6"/></g>
<g transform="translate(60,740) scale(3.4333333333333)"><rect width="6" height="6"/></g>
<g transform="translate(80,740) scale(3.4333333333333)"><rect width="6" height="6"/></g>
<g transform="translate(100,740) scale(3.4333333333333)"><rect width="6" height="6"/></g>
<g transform="translate(120,740) scale(3.4333333333333)"><rect width="6" height="6"/></g>
<g transform="translate(240,740) scale(3.4333333333333)"><rect width="6" height="6"/></g>
<g transform="translate(300,740) scale(3.4333333333333)"><rect width="6" height="6"/></g>
<g transform="translate(320,740) scale(3.4333333333333)"><rect width="6" height="6"/></g>
<g transform="translate(340,740) scale(3.4333333333333)"><rect width="6" height="6"/></g>
<g transform="translate(380,740) scale(3.4333333333333)"><rect width="6" height="6"/></g>
<g transform="translate(520,740) scale(3.4333333333333)"><rect width="6" height="6"/></g>
<g transform="translate(540,740) scale(3.4333333333333)"><rect width="6" height="6"/></g>
<g transform="translate(560,740) scale(3.4333333333333)"><rect width="6" height="6"/></g>
<g transform="translate(580,740) scale(3.4333333333333)"><rect width="6" height="6"/></g>
<g transform="translate(640,740) scale(3.4333333333333)"><rect width="6" height="6"/></g>
<g transform="translate(660,740) scale(3.4333333333333)"><rect width="6" height="6"/></g>
<g transform="translate(700,740) scale(3.4333333333333)"><rect width="6" height="6"/></g>
<g transform="translate(740,740) scale(3.4333333333333)"><rect width="6" height="6"/></g>
<g transform="translate(880,740) scale(3.4333333333333)"><rect width="6" height="6"/></g>
<g transform="translate(900,740) scale(3.4333333333333)"><rect width="6" height="6"/></g>
<g transform="translate(40,760) scale(3.4333333333333)"><rect width="6" height="6"/></g>
<g transform="translate(100,760) scale(3.4333333333333)"><rect width="6" height="6"/></g>
<g transform="translate(120,760) scale(3.4333333333333)"><rect width="6" height="6"/></g>
<g transform="translate(160,760) scale(3.4333333333333)"><rect width="6" height="6"/></g>
<g transform="translate(180,760) scale(3.4333333333333)"><rect width="6" height="6"/></g>
<g transform="translate(200,760) scale(3.4333333333333)"><rect width="6" height="6"/></g>
<g transform="translate(220,760) scale(3.4333333333333)"><rect width="6" height="6"/></g>
<g transform="translate(240,760) scale(3.4333333333333)"><rect width="6" height="6"/></g>
<g transform="translate(280,760) scale(3.4333333333333)"><rect width="6" height="6"/></g>
<g transform="translate(300,760) scale(3.4333333333333)"><rect width="6" height="6"/></g>
<g transform="translate(320,760) scale(3.4333333333333)"><rect width="6" height="6"/></g>
<g transform="translate(340,760) scale(3.4333333333333)"><rect width="6" height="6"/></g>
<g transform="translate(400,760) scale(3.4333333333333)"><rect width="6" height="6"/></g>
<g transform="translate(420,760) scale(3.4333333333333)"><rect width="6" height="6"/></g>
<g transform="translate(440,760) scale(3.4333333333333)"><rect width="6" height="6"/></g>
<g transform="translate(460,760) scale(3.4333333333333)"><rect width="6" height="6"/></g>
<g transform="translate(480,760) scale(3.4333333333333)"><rect width="6" height="6"/></g>
<g transform="translate(500,760) scale(3.4333333333333)"><rect width="6" height="6"/></g>
<g transform="translate(520,760) scale(3.4333333333333)"><rect width="6" height="6"/></g>
<g transform="translate(540,760) scale(3.4333333333333)"><rect width="6" height="6"/></g>
<g transform="translate(580,760) scale(3.4333333333333)"><rect width="6" height="6"/></g>
<g transform="translate(620,760) scale(3.4333333333333)"><rect width="6" height="6"/></g>
<g transform="translate(660,760) scale(3.4333333333333)"><rect width="6" height="6"/></g>
<g transform="translate(760,760) scale(3.4333333333333)"><rect width="6" height="6"/></g>
<g transform="translate(780,760) scale(3.4333333333333)"><rect width="6" height="6"/></g>
<g transform="translate(800,760) scale(3.4333333333333)"><rect width="6" height="6"/></g>
<g transform="translate(820,760) scale(3.4333333333333)"><rect width="6" height="6"/></g>
<g transform="translate(840,760) scale(3.4333333333333)"><rect width="6" height="6"/></g>
<g transform="translate(860,760) scale(3.4333333333333)"><rect width="6" height="6"/></g>
<g transform="translate(920,760) scale(3.4333333333333)"><rect width="6" height="6"/></g>
<g transform="translate(200,780) scale(3.4333333333333)"><rect width="6" height="6"/></g>
<g transform="translate(300,780) scale(3.4333333333333)"><rect width="6" height="6"/></g>
<g transform="translate(360,780) scale(3.4333333333333)"><rect width="6" height="6"/></g>
<g transform="translate(380,780) scale(3.4333333333333)"><rect width="6" height="6"/></g>
<g transform="translate(400,780) scale(3.4333333333333)"><rect width="6" height="6"/></g>
<g transform="translate(440,780) scale(3.4333333333333)"><rect width="6" height="6"/></g>
<g transform="translate(520,780) scale(3.4333333333333)"><rect width="6" height="6"/></g>
<g transform="translate(540,780) scale(3.4333333333333)"><rect width="6" height="6"/></g>
<g transform="translate(560,780) scale(3.4333333333333)"><rect width="6" height="6"/></g>
<g transform="translate(620,780) scale(3.4333333333333)"><rect width="6" height="6"/></g>
<g transform="translate(640,780) scale(3.4333333333333)"><rect width="6" height="6"/></g>
<g transform="translate(660,780) scale(3.4333333333333)"><rect width="6" height="6"/></g>
<g transform="translate(720,780) scale(3.4333333333333)"><rect width="6" height="6"/></g>
<g transform="translate(740,780) scale(3.4333333333333)"><rect width="6" height="6"/></g>
<g transform="translate(760,780) scale(3.4333333333333)"><rect width="6" height="6"/></g>
<g transform="translate(840,780) scale(3.4333333333333)"><rect width="6" height="6"/></g>
<g transform="translate(860,780) scale(3.4333333333333)"><rect width="6" height="6"/></g>
<g transform="translate(880,780) scale(3.4333333333333)"><rect width="6" height="6"/></g>
<g transform="translate(900,780) scale(3.4333333333333)"><rect width="6" height="6"/></g>
<g transform="translate(220,800) scale(3.4333333333333)"><rect width="6" height="6"/></g>
<g transform="translate(240,800) scale(3.4333333333333)"><rect width="6" height="6"/></g>
<g transform="translate(260,800) scale(3.4333333333333)"><rect width="6" height="6"/></g>
<g transform="translate(300,800) scale(3.4333333333333)"><rect width="6" height="6"/></g>
<g transform="translate(320,800) scale(3.4333333333333)"><rect width="6" height="6"/></g>
<g transform="translate(340,800) scale(3.4333333333333)"><rect width="6" height="6"/></g>
<g transform="translate(440,800) scale(3.4333333333333)"><rect width="6" height="6"/></g>
<g transform="translate(480,800) scale(3.4333333333333)"><rect width="6" height="6"/></g>
<g transform="translate(520,800) scale(3.4333333333333)"><rect width="6" height="6"/></g>
<g transform="translate(580,800) scale(3.4333333333333)"><rect width="6" height="6"/></g>
<g transform="translate(600,800) scale(3.4333333333333)"><rect width="6" height="6"/></g>
<g transform="translate(620,800) scale(3.4333333333333)"><rect width="6" height="6"/></g>
<g transform="translate(660,800) scale(3.4333333333333)"><rect width="6" height="6"/></g>
<g transform="translate(680,800) scale(3.4333333333333)"><rect width="6" height="6"/></g>
<g transform="translate(760,800) scale(3.4333333333333)"><rect width="6" height="6"/></g>
<g transform="translate(800,800) scale(3.4333333333333)"><rect width="6" height="6"/></g>
<g transform="translate(840,800) scale(3.4333333333333)"><rect width="6" height="6"/></g>
<g transform="translate(880,800) scale(3.4333333333333)"><rect width="6" height="6"/></g>
<g transform="translate(200,820) scale(3.4333333333333)"><rect width="6" height="6"/></g>
<g transform="translate(300,820) scale(3.4333333333333)"><rect width="6" height="6"/></g>
<g transform="translate(340,820) scale(3.4333333333333)"><rect width="6" height="6"/></g>
<g transform="translate(360,820) scale(3.4333333333333)"><rect width="6" height="6"/></g>
<g transform="translate(400,820) scale(3.4333333333333)"><rect width="6" height="6"/></g>
<g transform="translate(440,820) scale(3.4333333333333)"><rect width="6" height="6"/></g>
<g transform="translate(520,820) scale(3.4333333333333)"><rect width="6" height="6"/></g>
<g transform="translate(560,820) scale(3.4333333333333)"><rect width="6" height="6"/></g>
<g transform="translate(600,820) scale(3.4333333333333)"><rect width="6" height="6"/></g>
<g transform="translate(640,820) scale(3.4333333333333)"><rect width="6" height="6"/></g>
<g transform="translate(680,820) scale(3.4333333333333)"><rect width="6" height="6"/></g>
<g transform="translate(700,820) scale(3.4333333333333)"><rect width="6" height="6"/></g>
<g transform="translate(760,820) scale(3.4333333333333)"><rect width="6" height="6"/></g>
<g transform="translate(840,820) scale(3.4333333333333)"><rect width="6" height="6"/></g>
<g transform="translate(880,820) scale(3.4333333333333)"><rect width="6" height="6"/></g>
<g transform="translate(200,840) scale(3.4333333333333)"><rect width="6" height="6"/></g>
<g transform="translate(280,840) scale(3.4333333333333)"><rect width="6" height="6"/></g>
<g transform="translate(360,840) scale(3.4333333333333)"><rect width="6" height="6"/></g>
<g transform="translate(380,840) scale(3.4333333333333)"><rect width="6" height="6"/></g>
<g transform="translate(400,840) scale(3.4333333333333)"><rect width="6" height="6"/></g>
<g transform="translate(440,840) scale(3.4333333333333)"><rect width="6" height="6"/></g>
<g transform="translate(460,840) scale(3.4333333333333)"><rect width="6" height="6"/></g>
<g transform="translate(480,840) scale(3.4333333333333)"><rect width="6" height="6"/></g>
<g transform="translate(500,840) scale(3.4333333333333)"><rect width="6" height="6"/></g>
<g transform="translate(520,840) scale(3.4333333333333)"><rect width="6" height="6"/></g>
<g transform="translate(580,840) scale(3.4333333333333)"><rect width="6" height="6"/></g>
<g transform="translate(620,840) scale(3.4333333333333)"><rect width="6" height="6"/></g>
<g transform="translate(640,840) scale(3.4333333333333)"><rect width="6" height="6"/></g>
<g transform="translate(660,840) scale(3.4333333333333)"><rect width="6" height="6"/></g>
<g transform="translate(740,840) scale(3.4333333333333)"><rect width="6" height="6"/></g>
<g transform="translate(760,840) scale(3.4333333333333)"><rect width="6" height="6"/></g>
<g transform="translate(780,840) scale(3.4333333333333)"><rect width="6" height="6"/></g>
<g transform="translate(800,840) scale(3.4333333333333)"><rect width="6" height="6"/></g>
<g transform="translate(820,840) scale(3.4333333333333)"><rect width="6" height="6"/></g>
<g transform="translate(840,840) scale(3.4333333333333)"><rect width="6" height="6"/></g>
<g transform="translate(880,840) scale(3.4333333333333)"><rect width="6" height="6"/></g>
<g transform="translate(900,840) scale(3.4333333333333)"><rect width="6" height="6"/></g>
<g transform="translate(200,860) scale(3.4333333333333)"><rect width="6" height="6"/></g>
<g transform="translate(220,860) scale(3.4333333333333)"><rect width="6" height="6"/></g>
<g transform="translate(260,860) scale(3.4333333333333)"><rect width="6" height="6"/></g>
<g transform="translate(340,860) scale(3.4333333333333)"><rect width="6" height="6"/></g>
<g transform="translate(420,860) scale(3.4333333333333)"><rect width="6" height="6"/></g>
<g transform="translate(440,860) scale(3.4333333333333)"><rect width="6" height="6"/></g>
<g transform="translate(500,860) scale(3.4333333333333)"><rect width="6" height="6"/></g>
<g transform="translate(600,860) scale(3.4333333333333)"><rect width="6" height="6"/></g>
<g transform="translate(620,860) scale(3.4333333333333)"><rect width="6" height="6"/></g>
<g transform="translate(660,860) scale(3.4333333333333)"><rect width="6" height="6"/></g>
<g transform="translate(680,860) scale(3.4333333333333)"><rect width="6" height="6"/></g>
<g transform="translate(700,860) scale(3.4333333333333)"><rect width="6" height="6"/></g>
<g transform="translate(760,860) scale(3.4333333333333)"><rect width="6" height="6"/></g>
<g transform="translate(800,860) scale(3.4333333333333)"><rect width="6" height="6"/></g>
<g transform="translate(200,880) scale(3.4333333333333)"><rect width="6" height="6"/></g>
<g transform="translate(260,880) scale(3.4333333333333)"><rect width="6" height="6"/></g>
<g transform="translate(300,880) scale(3.4333333333333)"><rect width="6" height="6"/></g>
<g transform="translate(340,880) scale(3.4333333333333)"><rect width="6" height="6"/></g>
<g transform="translate(360,880) scale(3.4333333333333)"><rect width="6" height="6"/></g>
<g transform="translate(380,880) scale(3.4333333333333)"><rect width="6" height="6"/></g>
<g transform="translate(480,880) scale(3.4333333333333)"><rect width="6" height="6"/></g>
<g transform="translate(520,880) scale(3.4333333333333)"><rect width="6" height="6"/></g>
<g transform="translate(540,880) scale(3.4333333333333)"><rect width="6" height="6"/></g>
<g transform="translate(560,880) scale(3.4333333333333)"><rect width="6" height="6"/></g>
<g transform="translate(620,880) scale(3.4333333333333)"><rect width="6" height="6"/></g>
<g transform="translate(640,880) scale(3.4333333333333)"><rect width="6" height="6"/></g>
<g transform="translate(660,880) scale(3.4333333333333)"><rect width="6" height="6"/></g>
<g transform="translate(680,880) scale(3.4333333333333)"><rect width="6" height="6"/></g>
<g transform="translate(720,880) scale(3.4333333333333)"><rect width="6" height="6"/></g>
<g transform="translate(760,880) scale(3.4333333333333)"><rect width="6" height="6"/></g>
<g transform="translate(860,880) scale(3.4333333333333)"><rect width="6" height="6"/></g>
<g transform="translate(880,880) scale(3.4333333333333)"><rect width="6" height="6"/></g>
<g transform="translate(240,900) scale(3.4333333333333)"><rect width="6" height="6"/></g>
<g transform="translate(280,900) scale(3.4333333333333)"><rect width="6" height="6"/></g>
<g transform="translate(320,900) scale(3.4333333333333)"><rect width="6" height="6"/></g>
<g transform="translate(380,900) scale(3.4333333333333)"><rect width="6" height="6"/></g>
<g transform="translate(400,900) scale(3.4333333333333)"><rect width="6" height="6"/></g>
<g transform="translate(520,900) scale(3.4333333333333)"><rect width="6" height="6"/></g>
<g transform="translate(580,900) scale(3.4333333333333)"><rect width="6" height="6"/></g>
<g transform="translate(620,900) scale(3.4333333333333)"><rect width="6" height="6"/></g>
<g transform="translate(640,900) scale(3.4333333333333)"><rect width="6" height="6"/></g>
<g transform="translate(660,900) scale(3.4333333333333)"><rect width="6" height="6"/></g>
<g transform="translate(700,900) scale(3.4333333333333)"><rect width="6" height="6"/></g>
<g transform="translate(760,900) scale(3.4333333333333)"><rect width="6" height="6"/></g>
<g transform="translate(900,900) scale(3.4333333333333)"><rect width="6" height="6"/></g>
<g transform="translate(200,920) scale(3.4333333333333)"><rect width="6" height="6"/></g>
<g transform="translate(220,920) scale(3.4333333333333)"><rect width="6" height="6"/></g>
<g transform="translate(240,920) scale(3.4333333333333)"><rect width="6" height="6"/></g>
<g transform="translate(320,920) scale(3.4333333333333)"><rect width="6" height="6"/></g>
<g transform="translate(340,920) scale(3.4333333333333)"><rect width="6" height="6"/></g>
<g transform="translate(360,920) scale(3.4333333333333)"><rect width="6" height="6"/></g>
<g transform="translate(380,920) scale(3.4333333333333)"><rect width="6" height="6"/></g>
<g transform="translate(400,920) scale(3.4333333333333)"><rect width="6" height="6"/></g>
<g transform="translate(460,920) scale(3.4333333333333)"><rect width="6" height="6"/></g>
<g transform="translate(520,920) scale(3.4333333333333)"><rect width="6" height="6"/></g>
<g transform="translate(540,920) scale(3.4333333333333)"><rect width="6" height="6"/></g>
<g transform="translate(560,920) scale(3.4333333333333)"><rect width="6" height="6"/></g>
<g transform="translate(580,920) scale(3.4333333333333)"><rect width="6" height="6"/></g>
<g transform="translate(680,920) scale(3.4333333333333)"><rect width="6" height="6"/></g>
<g transform="translate(720,920) scale(3.4333333333333)"><rect width="6" height="6"/></g>
<g transform="translate(760,920) scale(3.4333333333333)"><rect width="6" height="6"/></g>
<g transform="translate(800,920) scale(3.4333333333333)"><rect width="6" height="6"/></g>
<g transform="translate(860,920) scale(3.4333333333333)"><rect width="6" height="6"/></g>
<g transform="translate(40,40)"><g transform="scale(10)"><path d="M0,0v14h14V0H0z M12,12H2V2h10V12z"/></g></g>
<g transform="translate(800,40)"><g transform="scale(10)"><path d="M0,0v14h14V0H0z M12,12H2V2h10V12z"/></g></g>
<g transform="translate(40,800)"><g transform="scale(10)"><path d="M0,0v14h14V0H0z M12,12H2V2h10V12z"/></g></g>
<g transform="translate(80,80)"><g transform="scale(10)"><rect width="6" height="6"/></g></g>
<g transform="translate(840,80)"><g transform="scale(10)"><rect width="6" height="6"/></g></g>
<g transform="translate(80,840)"><g transform="scale(10)"><rect width="6" height="6"/></g></g>
</g></svg>
