<svg width="25" height="24" viewBox="0 0 25 24" fill="none" xmlns="http://www.w3.org/2000/svg">
<path d="M0.504816 24L2.12722 18.0384C1.05818 16.2058 0.496531 14.1216 0.500016 12C0.500016 5.3724 5.87241 0 12.5 0C19.1276 0 24.5 5.3724 24.5 12C24.5 18.6276 19.1276 24 12.5 24C10.3793 24.0034 8.296 23.4422 6.46401 22.374L0.504816 24ZM8.16921 6.3696C8.01425 6.37922 7.86282 6.42003 7.72401 6.4896C7.59384 6.56331 7.47501 6.65547 7.37121 6.7632C7.22721 6.8988 7.14561 7.0164 7.05801 7.1304C6.61451 7.70759 6.37594 8.4161 6.38001 9.14399C6.38241 9.73199 6.53601 10.3044 6.77601 10.8396C7.26681 11.922 8.07441 13.068 9.14121 14.13C9.39801 14.3856 9.64881 14.6424 9.91881 14.8812C11.2429 16.0469 12.8207 16.8876 14.5268 17.3364L15.2096 17.4408C15.4316 17.4528 15.6536 17.436 15.8768 17.4252C16.2263 17.4071 16.5675 17.3125 16.8764 17.148C17.0336 17.067 17.1869 16.979 17.336 16.884C17.336 16.884 17.3876 16.8504 17.486 16.776C17.648 16.656 17.7476 16.5708 17.882 16.4304C17.9816 16.3272 18.068 16.206 18.134 16.068C18.2276 15.8724 18.3212 15.4992 18.3596 15.1884C18.3884 14.9508 18.38 14.8212 18.3764 14.7408C18.3716 14.6124 18.2648 14.4792 18.1484 14.4228L17.45 14.1096C17.45 14.1096 16.406 13.6548 15.7688 13.3644C15.7016 13.3351 15.6296 13.3184 15.5564 13.3152C15.4743 13.3068 15.3913 13.316 15.3131 13.3423C15.2349 13.3686 15.1632 13.4113 15.1028 13.4676V13.4652C15.0968 13.4652 15.0164 13.5336 14.1488 14.5848C14.099 14.6517 14.0304 14.7023 13.9518 14.7301C13.8731 14.7578 13.788 14.7616 13.7072 14.7408C13.629 14.7199 13.5524 14.6934 13.478 14.6616C13.3292 14.5992 13.2776 14.5752 13.1756 14.5308L13.1696 14.5284C12.4831 14.2287 11.8475 13.8238 11.2856 13.3284C11.1344 13.1964 10.994 13.0524 10.85 12.9132C10.3779 12.4611 9.96647 11.9496 9.62601 11.3916L9.55521 11.2776C9.50436 11.201 9.46324 11.1184 9.43281 11.0316C9.38721 10.8552 9.50601 10.7136 9.50601 10.7136C9.50601 10.7136 9.79761 10.3944 9.93321 10.2216C10.0461 10.078 10.1515 9.92858 10.2488 9.77399C10.3904 9.54599 10.4348 9.31199 10.3604 9.13079C10.0244 8.30999 9.67641 7.49279 9.31881 6.6816C9.24801 6.5208 9.03801 6.4056 8.84721 6.3828C8.78241 6.3756 8.71761 6.3684 8.65281 6.3636C8.49166 6.35559 8.33017 6.35839 8.16921 6.3696Z" fill="#F7F7F8"/>
</svg>
